<svg width="45" height="12" viewBox="0 0 45 12" fill="none" xmlns="http://www.w3.org/2000/svg">
<path d="M11.4766 8.11236H13.1183C13.3918 9.43884 14.25 10.2451 15.974 10.2451C17.3942 10.2451 18.4295 9.71212 18.4295 8.59469V8.58055C18.4295 7.38448 17.4677 7.03822 16.1882 6.74231L14.7235 6.40425C12.9041 5.98529 11.7428 5.13548 11.7428 3.37589V3.35467C11.7428 1.63157 13.3773 0.5 15.6337 0.5C17.8901 0.5 19.3469 1.61743 19.6355 3.52724H18.001C17.6831 2.26666 16.8615 1.75491 15.5527 1.75491C14.2439 1.75491 13.3555 2.30316 13.3555 3.30432V3.31846C13.3555 4.22683 13.962 4.73179 15.0864 4.99828L16.5584 5.34454C18.696 5.84922 20.0422 6.43962 20.0422 8.38592V8.40827C20.0422 10.44 18.2896 11.5 15.9147 11.5C13.1929 11.5 11.7654 10.0445 11.4769 8.11236H11.4766Z" fill="#0A0F0F"/>
<path d="M21.2812 0.702148H22.849V11.2979H21.2812V0.702148Z" fill="#0A0F0F"/>
<path d="M24.1543 6.0076V5.99345C24.1543 2.7996 26.2998 0.500244 29.5912 0.500244C32.1431 0.500244 33.9777 1.76195 34.5397 3.84545H32.8979C32.4468 2.50369 31.1151 1.83352 29.6063 1.83352C27.2242 1.83352 25.819 3.55662 25.819 5.99345V6.0076C25.819 8.45858 27.2242 10.1803 29.6063 10.1803C31.5366 10.1803 33.1273 9.0487 33.1273 7.0956V7.01583H29.3473V5.73291H34.621V11.2977H33.334L33.3122 9.69086C32.6907 10.664 31.3668 11.4997 29.5546 11.4997C26.307 11.4997 24.1543 9.21419 24.1543 6.0076Z" fill="#0A0F0F"/>
<path d="M36.3203 0.702148H38.3767L43.4805 9.40223H43.4951L43.4805 7.13909V0.702148H44.9972V11.2979H42.9257L37.8364 2.59781H37.8219L37.8364 4.86095V11.2979H36.3203V0.702148Z" fill="#0A0F0F"/>
<path d="M0 6.894V5.16496L10.874 0.699219V2.37196L7.317 3.81047C7.317 3.81047 7.78674 4.75109 7.78674 6.11577C7.78674 7.48044 7.31352 8.40946 7.31352 8.40946L10.874 9.83863V11.3597L0 6.894ZM6.05294 4.32477L1.64323 6.1169V6.13104L6.05932 7.90591C6.05932 7.90591 6.42803 7.16813 6.42803 6.11577C6.42803 5.0634 6.05294 4.32477 6.05294 4.32477Z" fill="#0A0F0F"/>
</svg>
