<svg width="82" height="20" viewBox="0 0 82 20" fill="none" xmlns="http://www.w3.org/2000/svg">
<g id="icon_logo 1" clip-path="url(#clip0_407_16197)">
<path id="Vector" d="M20.9138 13.8414H23.9055C24.4039 16.2533 25.9678 17.7193 29.1094 17.7193C31.6975 17.7193 33.5843 16.7502 33.5843 14.7184V14.6927C33.5843 12.5179 31.8315 11.8883 29.4998 11.3503L26.8308 10.7356C23.515 9.97378 21.3989 8.42858 21.3989 5.22916V5.19058C21.3989 2.05751 24.3775 0 28.4893 0C32.6012 0 35.256 2.03178 35.7819 5.50435H32.8033C32.224 3.21229 30.7267 2.28178 28.3417 2.28178C25.9568 2.28178 24.3378 3.27864 24.3378 5.09902V5.12475C24.3378 6.7764 25.443 7.69456 27.492 8.17911L30.1743 8.80871C34.0699 9.72636 36.5232 10.7999 36.5232 14.3388V14.3794C36.5232 18.0737 33.3292 20.0011 29.0014 20.0011C24.0415 20.0011 21.4397 17.3546 20.9138 13.8414Z" fill="#1D1D1D"/>
<path id="Vector_2" d="M38.78 0.367554H41.637V19.6335H38.78V0.367554Z" fill="#1D1D1D"/>
<path id="Vector_3" d="M44.0154 10.0139V9.98818C44.0154 4.18085 47.9252 0 53.923 0C58.5735 0 61.9168 2.29413 62.941 6.08251H59.9491C59.1269 3.64282 56.7001 2.42425 53.9506 2.42425C49.6097 2.42425 47.0491 5.55733 47.0491 9.98818V10.0139C47.0491 14.4705 49.6097 17.601 53.9506 17.601C57.4684 17.601 60.3672 15.5435 60.3672 11.9922V11.8471H53.4788V9.51444H63.089V19.6327H60.7438L60.7041 16.7111C59.5714 18.4805 57.1588 20 53.8565 20C47.9383 20 44.0154 15.8444 44.0154 10.0139Z" fill="#1D1D1D"/>
<path id="Vector_4" d="M66.1879 0.367554H69.9353L79.2361 16.1867H79.2627L79.2361 12.0717V0.367554H82V19.6335H78.2251L68.9507 3.81439H68.9243L68.9507 7.92941V19.6335H66.1879V0.367554Z" fill="#1D1D1D"/>
<path id="Vector_5" d="M0 11.626V8.48215L19.8159 0.362183V3.40369L13.3339 6.01931C13.3339 6.01931 14.1899 7.7296 14.1899 10.211C14.1899 12.6923 13.3276 14.3815 13.3276 14.3815L19.8159 16.9802V19.746L0 11.626ZM11.0304 6.95444L2.99448 10.213V10.2387L11.042 13.4659C11.042 13.4659 11.7139 12.1245 11.7139 10.211C11.7139 8.29747 11.0304 6.95444 11.0304 6.95444Z" fill="#1D1D1D"/>
</g>
<defs>
<clipPath id="clip0_407_16197">
<rect width="82" height="20" fill="white"/>
</clipPath>
</defs>
</svg>
