<svg width="18" height="16" viewBox="0 0 18 16" fill="none" xmlns="http://www.w3.org/2000/svg">
<path d="M9 12.7308C10.0449 12.7308 10.9279 12.3702 11.649 11.6491C12.3702 10.9279 12.7308 10.0449 12.7308 9C12.7308 7.95513 12.3702 7.07212 11.649 6.35095C10.9279 5.6298 10.0449 5.26922 9 5.26922C7.95513 5.26922 7.07212 5.6298 6.35095 6.35095C5.6298 7.07212 5.26923 7.95513 5.26923 9C5.26923 10.0449 5.6298 10.9279 6.35095 11.6491C7.07212 12.3702 7.95513 12.7308 9 12.7308ZM9 11.7308C8.22308 11.7308 7.57373 11.4699 7.05193 10.9481C6.53013 10.4263 6.26923 9.77692 6.26923 9C6.26923 8.22308 6.53013 7.57373 7.05193 7.05193C7.57373 6.53013 8.22308 6.26922 9 6.26922C9.77692 6.26922 10.4263 6.53013 10.9481 7.05193C11.4699 7.57373 11.7308 8.22308 11.7308 9C11.7308 9.77692 11.4699 10.4263 10.9481 10.9481C10.4263 11.4699 9.77692 11.7308 9 11.7308ZM1.61538 16C1.15513 16 0.770833 15.8458 0.4625 15.5375C0.154167 15.2292 0 14.8449 0 14.3846V3.61537C0 3.15512 0.154167 2.77083 0.4625 2.4625C0.770833 2.15417 1.15513 2 1.61538 2H4.57308L6.42308 0H11.5769L13.4269 2H16.3846C16.8449 2 17.2292 2.15417 17.5375 2.4625C17.8458 2.77083 18 3.15512 18 3.61537V14.3846C18 14.8449 17.8458 15.2292 17.5375 15.5375C17.2292 15.8458 16.8449 16 16.3846 16H1.61538ZM1.61538 15H16.3846C16.5641 15 16.7115 14.9423 16.8269 14.8269C16.9423 14.7115 17 14.5641 17 14.3846V3.61537C17 3.43589 16.9423 3.28846 16.8269 3.17307C16.7115 3.05769 16.5641 3 16.3846 3H12.9885L11.1442 1H6.85577L5.01155 3H1.61538C1.43589 3 1.28846 3.05769 1.17308 3.17307C1.05769 3.28846 1 3.43589 1 3.61537V14.3846C1 14.5641 1.05769 14.7115 1.17308 14.8269C1.28846 14.9423 1.43589 15 1.61538 15Z" fill="#696969"/>
</svg>

