<svg width="40" height="40" viewBox="0 0 40 40" fill="none" xmlns="http://www.w3.org/2000/svg">
<rect width="40" height="40" rx="20" fill="#1D1D1D"/>
<path d="M29 13.98C25.67 13.65 22.32 13.48 18.98 13.48C17 13.48 15.02 13.58 13.04 13.78L11 13.98" stroke="white" stroke-width="1.5" stroke-linecap="round" stroke-linejoin="round"/>
<path d="M16.5 12.97L16.72 11.66C16.88 10.71 17 10 18.69 10H21.31C23 10 23.13 10.75 23.28 11.67L23.5 12.97" stroke="white" stroke-width="1.5" stroke-linecap="round" stroke-linejoin="round"/>
<path d="M26.8499 17.1401L26.1999 27.2101C26.0899 28.7801 25.9999 30.0001 23.2099 30.0001H16.7899C13.9999 30.0001 13.9099 28.7801 13.7999 27.2101L13.1499 17.1401" stroke="white" stroke-width="1.5" stroke-linecap="round" stroke-linejoin="round"/>
<path d="M18.3301 24.5H21.6601" stroke="white" stroke-width="1.5" stroke-linecap="round" stroke-linejoin="round"/>
<path d="M17.5 20.5H22.5" stroke="white" stroke-width="1.5" stroke-linecap="round" stroke-linejoin="round"/>
</svg>
