<?xml version="1.0" standalone="no"?>
<!DOCTYPE svg PUBLIC "-//W3C//DTD SVG 20010904//EN"
 "http://www.w3.org/TR/2001/REC-SVG-20010904/DTD/svg10.dtd">
<svg version="1.0" xmlns="http://www.w3.org/2000/svg"
 width="96.000000pt" height="96.000000pt" viewBox="0 0 96.000000 96.000000"
 preserveAspectRatio="xMidYMid meet">

<g transform="translate(0.000000,96.000000) scale(0.100000,-0.100000)"
fill="#000000" stroke="none">
<path d="M154 806 c-36 -36 -43 -70 -22 -109 6 -12 64 -80 130 -151 l118 -130
0 -104 c0 -57 5 -112 10 -123 14 -25 82 -59 120 -59 17 0 39 9 50 20 18 18 20
33 20 143 l0 124 119 131 c66 72 125 140 130 151 20 37 12 72 -23 107 l-34 34
-292 0 -292 0 -34 -34z m618 -33 c10 -9 18 -24 18 -34 0 -10 -58 -83 -130
-161 l-130 -143 0 -123 c0 -138 -5 -148 -66 -119 l-34 17 0 113 0 113 -130
142 c-72 78 -130 150 -130 159 0 9 7 25 17 35 15 17 37 18 291 18 242 0 278
-2 294 -17z"/>
</g>
</svg>
