<svg width="16" height="16" viewBox="0 0 16 16" fill="none" xmlns="http://www.w3.org/2000/svg">
<path d="M8 16C3.60594 16 0 12.3941 0 8C0 3.60594 3.60594 0 8 0C12.3941 0 16 3.60594 16 8C16 12.3941 12.3941 16 8 16ZM8.9375 4.25C8.9375 3.73319 8.51681 3.3125 8 3.3125C7.48319 3.3125 7.0625 3.73319 7.0625 4.25V8.9375C7.0625 9.45431 7.48319 9.875 8 9.875C8.51681 9.875 8.9375 9.45431 8.9375 8.9375V4.25ZM8 10.8125C7.48319 10.8125 7.0625 11.2332 7.0625 11.75C7.0625 12.2668 7.48319 12.6875 8 12.6875C8.51681 12.6875 8.9375 12.2668 8.9375 11.75C8.9375 11.2332 8.51681 10.8125 8 10.8125Z" fill="#CB8400"/>
</svg>
