<svg width="18" height="18" viewBox="0 0 18 18" fill="none" xmlns="http://www.w3.org/2000/svg">
<path d="M0 4.03845V0H4.03845V1H1V4.03845H0ZM0 18V13.9616H1V17H4.03845V18H0ZM13.9615 18V17H17V13.9616H18V18H13.9615ZM17 4.03845V1H13.9615V0H18V4.03845H17ZM13.9423 13.9423H15.1538V15.1538H13.9423V13.9423ZM13.9423 11.5192H15.1538V12.7308H13.9423V11.5192ZM12.7308 12.7308H13.9423V13.9423H12.7308V12.7308ZM11.5192 13.9423H12.7308V15.1538H11.5192V13.9423ZM10.3077 12.7308H11.5192V13.9423H10.3077V12.7308ZM12.7308 10.3077H13.9423V11.5192H12.7308V10.3077ZM11.5192 11.5192H12.7308V12.7308H11.5192V11.5192ZM10.3077 10.3077H11.5192V11.5192H10.3077V10.3077ZM15.1538 2.84615V7.6923H10.3077V2.84615H15.1538ZM7.6923 10.3077V15.1538H2.84615V10.3077H7.6923ZM7.6923 2.84615V7.6923H2.84615V2.84615H7.6923ZM6.8077 14.2692V11.1923H3.73077V14.2692H6.8077ZM6.8077 6.8077V3.73078H3.73077V6.8077H6.8077ZM14.2692 6.8077V3.73078H11.1923V6.8077H14.2692Z" fill="#696969"/>
</svg>
