<svg width="32" height="32" viewBox="0 0 32 32" fill="none" xmlns="http://www.w3.org/2000/svg">
<path d="M8.5 29H7C4.79086 29 3 27.2091 3 25L3 7.00002C3 4.79088 4.79086 3.00002 7 3.00002L10 3.00002M8.5 29C8.5 27.489 8.5 22.7358 8.5 19.9973C8.5 18.8928 9.39195 18 10.4965 18C13.1221 18 17.7794 18 21.003 18C22.1075 18 23 18.8954 23 20V29M8.5 29L23 29M23 29H25C27.2091 29 29 27.2091 29 25V10.6568C29 9.59596 28.5786 8.57854 27.8284 7.8284L24.1716 4.17157C23.4214 3.42142 22.404 3 21.3431 3L20 3M10 3.00002V8C10 8.55228 10.4477 9 11 9H19C19.5523 9 20 8.55228 20 8V3M10 3.00002L20 3" stroke="white" stroke-width="2" stroke-linecap="round" stroke-linejoin="round"/>
</svg>
