<svg width="16" height="16" viewBox="0 0 16 16" fill="none" xmlns="http://www.w3.org/2000/svg">
<path d="M8.00421 15.5C3.88461 15.5 0.503906 12.1193 0.503906 7.99969C0.503906 3.88009 3.88461 0.49939 8.00421 0.49939C12.1238 0.49939 15.5045 3.88009 15.5045 7.99969C15.5045 12.1193 12.1238 15.5 8.00421 15.5ZM8.88315 4.48393C8.88315 3.9994 8.48874 3.60498 8.00421 3.60498C7.51968 3.60498 7.12527 3.9994 7.12527 4.48393V8.87864C7.12527 9.36317 7.51968 9.75758 8.00421 9.75758C8.48874 9.75758 8.88315 9.36317 8.88315 8.87864V4.48393ZM8.00421 10.6365C7.51968 10.6365 7.12527 11.0309 7.12527 11.5155C7.12527 12 7.51968 12.3944 8.00421 12.3944C8.48874 12.3944 8.88315 12 8.88315 11.5155C8.88315 11.0309 8.48874 10.6365 8.00421 10.6365Z" fill="#CB8400"/>
</svg>
